<?xml version="1.0" standalone="no"?><!DOCTYPE svg PUBLIC "-//W3C//DTD SVG 1.1//EN" "http://www.w3.org/Graphics/SVG/1.1/DTD/svg11.dtd"><svg t="1591252708998" class="icon" viewBox="0 0 1024 1024" version="1.1" xmlns="http://www.w3.org/2000/svg" p-id="3521" xmlns:xlink="http://www.w3.org/1999/xlink" width="40" height="40"><defs><style type="text/css"></style></defs><path d="M1013.38 411.25c-8.87-47.3-41.73-78.61-84.89-78.61h-1.87c-43.71 0-79.38-35.83-79.38-79.76 0-9.92 4.85-24.37 7-29.44 18.57-41.89 4.35-93.27-34.29-120.33L698.79 35.37l-5-2.38a97.61 97.61 0 0 0-38.92-7.71c-28 0-56.23 10.86-75.19 30.59-18.08 18.68-50.49 40.35-65.38 40.35s-47.57-22.16-65.54-41.12a104.72 104.72 0 0 0-114.44-23.59L207.87 100.79l-5 3.2a98.88 98.88 0 0 0-33.4 119.4c2.36 5.4 7.16 19.78 7.16 29.71 0 43.93-35.67 79.71-82.46 79.71h-2c-40.07 0-72.87 31.31-81.8 79.37C7.94 425.69 0 472.71 0 511.74s7.94 86 10.53 100.37c8.93 47.08 41.89 78.67 82 78.67h4.85c43.65 0 79.38 35.77 79.38 79.59 0 9.54-4.52 23.54-7.11 29.44-18.42 41.89-4.3 93.16 33.57 119.89L322.53 987l4.85 2.37a95 95 0 0 0 39 7.93c28.5 0 57.33-11.51 76.18-32.18 17.64-19.19 52-43 66.7-43 15.38 0 48.78 23.7 67.14 43.87 18.9 21 46.52 33.08 76 33.08a98.17 98.17 0 0 0 39.25-7.94l124.19-68.51 5-3.21c37.49-26.23 51.71-77.5 33.3-119.22-2.21-5.46-7.06-19.85-7.06-29.71 0-43.94 35.67-79.6 82.69-79.6 40.34-0.55 74.41-30.87 83.56-79.38 2.48-13.5 10.42-60.52 10.42-99.55 0.22-39.25-7.83-86.44-10.31-100.66zM941.45 598c-1.71 9.36-6.62 19.45-12.63 19.45-86.37 0-154.73 67.09-154.73 152.8 0 25.36 9.76 50.72 12.74 57.88 5 11.19 1 25-7.78 31.09l-0.27 0.17-118.24 65.22a26.31 26.31 0 0 1-7.94 1.1 29.28 29.28 0 0 1-21.53-8.77c-6.73-7.27-63.78-68-121.5-68-58.7 0-119.94 65.87-120.61 66.47a32 32 0 0 1-31.2 7.18l-1.21-0.56-113-63.77a26.29 26.29 0 0 1-7-29c2.64-6.17 13.23-32.69 13.23-59a152.92 152.92 0 0 0-152.43-152.8h-4.85c-1.71-0.38-7.55-6-10.15-19.07-2.09-11.52-9.14-54.13-9.14-86.82 0-26 4.68-61.62 9.14-86.54 2.32-12.46 7.77-18.41 9.54-19.29h2.32c87.2-0.17 155.56-67.31 155.56-153 0-26.35-10.7-53-12.9-58.05a26.45 26.45 0 0 1 7.2-30.45l1.27-0.72 119.8-65.76a32.35 32.35 0 0 1 30.31 7.44c2.49 2.59 61.3 63.89 118.74 63.89 56.72 0 115.43-60.08 117.85-62.67a33.53 33.53 0 0 1 22.6-8.42 25.79 25.79 0 0 1 8.88 1.49l1 0.55 115 64.17c8.27 7.33 11.75 19.95 7.55 29.49-2.64 6.06-13.22 32.41-13.22 59a152.68 152.68 0 0 0 152.47 152.8c10.47 0 13.78 13.35 14.88 19.08 4.41 24.36 9.26 60.41 9.26 86.76 0.28 26.74-4.68 63.28-9 86.55z m0 0" p-id="3522"></path><path d="M511.99 316.33a195.14 195.14 0 1 0-0.12 390.16c106.48-1.77 191.88-88.57 191.91-195.06s-85.32-193.34-191.79-195.16z m0 317c-67.25 0-122-54.63-122-121.82a121.91 121.91 0 1 1 122 121.82z m0 0" p-id="3523"></path></svg>